<?xml version="1.0" standalone="no"?><!DOCTYPE svg PUBLIC "-//W3C//DTD SVG 1.1//EN" "http://www.w3.org/Graphics/SVG/1.1/DTD/svg11.dtd"><svg t="1660722114534" class="icon" viewBox="0 0 1024 1024" version="1.1" xmlns="http://www.w3.org/2000/svg" p-id="3513" xmlns:xlink="http://www.w3.org/1999/xlink" width="200" height="200"><defs><style type="text/css">@font-face { font-family: feedback-iconfont; src: url("//at.alicdn.com/t/font_1031158_u69w8yhxdu.woff2?t=1630033759944") format("woff2"), url("//at.alicdn.com/t/font_1031158_u69w8yhxdu.woff?t=1630033759944") format("woff"), url("//at.alicdn.com/t/font_1031158_u69w8yhxdu.ttf?t=1630033759944") format("truetype"); }
</style></defs><path d="M468.8 159.072a86.4 86.4 0 0 1 86.4 0l240.832 139.04a86.4 86.4 0 0 1 43.2 74.848v278.08a86.4 86.4 0 0 1-43.2 74.848l-240.832 139.04a86.4 86.4 0 0 1-86.4 0l-240.832-139.04a86.4 86.4 0 0 1-43.2-74.848v-278.08a86.4 86.4 0 0 1 43.2-74.848z m64 38.816a41.6 41.6 0 0 0-41.6 0l-240.832 139.04a41.6 41.6 0 0 0-20.8 36.032v278.08c0 14.88 7.904 28.608 20.8 36.032l240.832 139.04a41.6 41.6 0 0 0 41.6 0l240.832-139.04a41.6 41.6 0 0 0 20.8-36.032v-278.08a41.6 41.6 0 0 0-20.8-36.032zM512 297.6a150.4 150.4 0 0 1 119.04 242.304l-0.832 1.056 0.192 3.04v160a22.4 22.4 0 0 1-32.16 20.16l-2.848-1.632-81.664-55.616-85.472 55.84a22.4 22.4 0 0 1-34.432-15.488L393.6 704v-160l0.192-3.04-0.864-1.056A150.4 150.4 0 0 1 512 297.6z m73.6 281.6c-21.76 12.224-46.848 19.2-73.6 19.2-26.752 0-51.84-6.976-73.6-19.2v83.36l63.328-41.312a22.4 22.4 0 0 1 21.952-1.44l2.88 1.664 59.04 40.192zM512 342.4a105.6 105.6 0 1 0 0 211.2 105.6 105.6 0 0 0 0-211.2z" p-id="3514" fill="#FF868D"></path></svg>