<?xml version="1.0" standalone="no"?><!DOCTYPE svg PUBLIC "-//W3C//DTD SVG 1.1//EN" "http://www.w3.org/Graphics/SVG/1.1/DTD/svg11.dtd"><svg t="1660722034459" class="icon" viewBox="0 0 1024 1024" version="1.1" xmlns="http://www.w3.org/2000/svg" p-id="1879" xmlns:xlink="http://www.w3.org/1999/xlink" width="200" height="200"><defs><style type="text/css">@font-face { font-family: feedback-iconfont; src: url("//at.alicdn.com/t/font_1031158_u69w8yhxdu.woff2?t=1630033759944") format("woff2"), url("//at.alicdn.com/t/font_1031158_u69w8yhxdu.woff?t=1630033759944") format("woff"), url("//at.alicdn.com/t/font_1031158_u69w8yhxdu.ttf?t=1630033759944") format("truetype"); }
</style></defs><path d="M358.4 137.6a22.4 22.4 0 0 1 16.64 7.392C406.72 180.192 456.992 201.6 512 201.6c54.976 0 105.28-21.44 136.96-56.608a22.4 22.4 0 0 1 16.64-7.392H704a22.4 22.4 0 0 1 12.64 3.904l149.312 101.952a86.656 86.656 0 0 1 33.376 98.176l-2.112 5.824-44.48 108.992a22.4 22.4 0 0 1-25.6 13.44l-36.768-8.192L790.4 800a86.4 86.4 0 0 1-80.96 86.24L704 886.4H320A86.4 86.4 0 0 1 233.6 800l-0.032-338.304-36.704 8.16a22.4 22.4 0 0 1-24.16-10.496l-1.44-2.88-44.48-109.024a86.4 86.4 0 0 1 31.264-104l149.312-101.952A22.4 22.4 0 0 1 320 137.6z m-9.6 44.768h-21.856L183.328 280.448a41.6 41.6 0 0 0-16.512 45.856l1.44 4.224 37.344 91.488 45.536-10.08a22.4 22.4 0 0 1 27.072 18.848l0.192 3.008V800a41.6 41.6 0 0 0 41.6 41.6h384a41.6 41.6 0 0 0 41.6-41.6V433.792a22.4 22.4 0 0 1 27.264-21.856l45.504 10.08 37.024-90.624 1.504-4.096a41.6 41.6 0 0 0-16.224-46.848L697.024 182.4h-21.856l-5.024 4.928c-38.08 35.36-91.2 56.768-148.544 58.912L512 246.4c-60.992 0-117.92-21.76-158.144-59.104l-5.056-4.928zM608 409.6a22.4 22.4 0 0 1 3.04 44.608L608 454.4h-73.6v169.6a22.4 22.4 0 0 1-44.608 3.04L489.6 624v-169.6H416a22.4 22.4 0 0 1-3.04-44.608L416 409.6h192z" p-id="1880"></path></svg>