<?xml version="1.0" standalone="no"?><!DOCTYPE svg PUBLIC "-//W3C//DTD SVG 1.1//EN" "http://www.w3.org/Graphics/SVG/1.1/DTD/svg11.dtd"><svg t="1660722108980" class="icon" viewBox="0 0 1024 1024" version="1.1" xmlns="http://www.w3.org/2000/svg" p-id="3327" xmlns:xlink="http://www.w3.org/1999/xlink" width="200" height="200"><defs><style type="text/css">@font-face { font-family: feedback-iconfont; src: url("//at.alicdn.com/t/font_1031158_u69w8yhxdu.woff2?t=1630033759944") format("woff2"), url("//at.alicdn.com/t/font_1031158_u69w8yhxdu.woff?t=1630033759944") format("woff"), url("//at.alicdn.com/t/font_1031158_u69w8yhxdu.ttf?t=1630033759944") format("truetype"); }
</style></defs><path d="M757.056 393.6a86.4 86.4 0 0 1 85.312 99.936l-50.784 320A86.4 86.4 0 0 1 706.24 886.4H317.76a86.4 86.4 0 0 1-85.344-72.864l-50.784-320A86.4 86.4 0 0 1 266.944 393.6z m0 44.8H266.944a41.6 41.6 0 0 0-41.056 48.128l50.784 320A41.6 41.6 0 0 0 317.76 841.6h388.48a41.6 41.6 0 0 0 41.088-35.072l50.784-320a41.6 41.6 0 0 0-41.056-48.128zM368 544a48 48 0 1 1 0 96 48 48 0 0 1 0-96z m288 0a48 48 0 1 1 0 96 48 48 0 0 1 0-96zM512 137.6a196.288 196.288 0 0 1 194.88 172.576l0.736 7.424 2.752 33.216a22.4 22.4 0 0 1-44.16 6.72l-0.48-3.008-2.752-33.216a151.488 151.488 0 0 0-301.184-7.104l-0.768 7.104-2.752 33.216a154.24 154.24 0 0 0-0.544 12.8 22.4 22.4 0 0 1-44.8 0l0.192-8.256 0.512-8.256 2.752-33.216A196.288 196.288 0 0 1 512 137.6z" p-id="3328" fill="#FF868D"></path></svg>