<?xml version="1.0" standalone="no"?><!DOCTYPE svg PUBLIC "-//W3C//DTD SVG 1.1//EN" "http://www.w3.org/Graphics/SVG/1.1/DTD/svg11.dtd"><svg t="1660722095053" class="icon" viewBox="0 0 1024 1024" version="1.1" xmlns="http://www.w3.org/2000/svg" p-id="2915" xmlns:xlink="http://www.w3.org/1999/xlink" width="200" height="200"><defs><style type="text/css">@font-face { font-family: feedback-iconfont; src: url("//at.alicdn.com/t/font_1031158_u69w8yhxdu.woff2?t=1630033759944") format("woff2"), url("//at.alicdn.com/t/font_1031158_u69w8yhxdu.woff?t=1630033759944") format("woff"), url("//at.alicdn.com/t/font_1031158_u69w8yhxdu.ttf?t=1630033759944") format("truetype"); }
</style></defs><path d="M782.112 169.6a22.4 22.4 0 0 1 22.4 22.4v297.6h9.6a54.4 54.4 0 0 1 54.208 49.696l0.192 4.704v256a54.4 54.4 0 0 1-54.4 54.4h-192a54.4 54.4 0 0 1-54.4-54.4v-256a54.4 54.4 0 0 1 54.4-54.4h9.6V256a86.4 86.4 0 0 1 80.96-86.24l5.44-0.16z m-416 64a277.664 277.664 0 0 1 204.448 89.44 22.4 22.4 0 0 1-1.184 31.584l-93.088 86.464-61.184 56.32a22.336 22.336 0 0 1 4.96 10.208l45.184 225.856a101.12 101.12 0 1 1-198.272 0l45.184-225.856a22.336 22.336 0 0 1 5.024-10.24l-154.496-142.4a22.4 22.4 0 0 1-1.28-31.68A277.664 277.664 0 0 1 366.112 233.6z m448 300.8l-31.552-0.032-0.448 0.032h-160a9.6 9.6 0 0 0-9.6 9.6v256a9.6 9.6 0 0 0 9.6 9.6h192a9.6 9.6 0 0 0 9.6-9.6v-256a9.6 9.6 0 0 0-9.6-9.6z m-434.368 0h-27.296l-41.536 207.872a56.32 56.32 0 0 0-0.96 7.328l-0.128 3.712a56.32 56.32 0 1 0 111.488-11.04l-41.6-207.872z m379.968-320h-41.6a41.6 41.6 0 0 0-41.6 41.6v233.6h83.2V214.4z m-393.6 64c-56.672 0-110.08 20.288-151.872 56.096l-3.904 3.424 133.376 122.912V416a22.4 22.4 0 0 1 44.608-3.04l0.192 3.04v45.088l133.184-123.296-3.904-3.488a232.576 232.576 0 0 0-142.272-55.712z" p-id="2916" fill="#FF868D"></path></svg>