<?xml version="1.0" standalone="no"?><!DOCTYPE svg PUBLIC "-//W3C//DTD SVG 1.1//EN" "http://www.w3.org/Graphics/SVG/1.1/DTD/svg11.dtd"><svg t="1660722043763" class="icon" viewBox="0 0 1024 1024" version="1.1" xmlns="http://www.w3.org/2000/svg" p-id="2025" xmlns:xlink="http://www.w3.org/1999/xlink" width="200" height="200"><defs><style type="text/css">@font-face { font-family: feedback-iconfont; src: url("//at.alicdn.com/t/font_1031158_u69w8yhxdu.woff2?t=1630033759944") format("woff2"), url("//at.alicdn.com/t/font_1031158_u69w8yhxdu.woff?t=1630033759944") format("woff"), url("//at.alicdn.com/t/font_1031158_u69w8yhxdu.ttf?t=1630033759944") format("truetype"); }
</style></defs><path d="M768 137.6a118.4 118.4 0 1 1-96.096 187.584l-190.592 101.6c13.44 25.44 21.088 54.432 21.088 85.216 0 30.752-7.616 59.744-21.056 85.184l190.56 101.632a118.4 118.4 0 1 1-18.88 40.736l-197.6-105.376a182.4 182.4 0 1 1 0-244.352l197.6-105.376A118.4 118.4 0 0 1 768 137.6z m0 556.8a73.6 73.6 0 1 0 0 147.2 73.6 73.6 0 0 0 0-147.2z m-448-320a137.6 137.6 0 1 0 0 275.2 137.6 137.6 0 0 0 0-275.2z m448-192a73.6 73.6 0 0 0-70.816 93.696l14.688 27.52A73.6 73.6 0 1 0 768 182.4z" p-id="2026" fill="#FF868D"></path></svg>