<?xml version="1.0" standalone="no"?><!DOCTYPE svg PUBLIC "-//W3C//DTD SVG 1.1//EN" "http://www.w3.org/Graphics/SVG/1.1/DTD/svg11.dtd"><svg t="1660722055675" class="icon" viewBox="0 0 1024 1024" version="1.1" xmlns="http://www.w3.org/2000/svg" p-id="2397" xmlns:xlink="http://www.w3.org/1999/xlink" width="200" height="200"><defs><style type="text/css">@font-face { font-family: feedback-iconfont; src: url("//at.alicdn.com/t/font_1031158_u69w8yhxdu.woff2?t=1630033759944") format("woff2"), url("//at.alicdn.com/t/font_1031158_u69w8yhxdu.woff?t=1630033759944") format("woff"), url("//at.alicdn.com/t/font_1031158_u69w8yhxdu.ttf?t=1630033759944") format("truetype"); }
</style></defs><path d="M427.936 487.424l5.056 4.864 113.12 113.12a22.4 22.4 0 0 1-29.376 33.696l-2.304-2.016-113.12-113.12a137.6 137.6 0 1 0-42.656 223.616 22.4 22.4 0 1 1 17.76 41.12 182.432 182.432 0 1 1 51.52-301.28z m-15.776-172.288a278.4 278.4 0 1 1 0 393.728l-107.264-107.296-2.016-2.272a22.4 22.4 0 0 1 33.696-29.376l107.264 107.264 5.568 5.376a233.6 233.6 0 1 0-5.568-335.744 22.4 22.4 0 0 1-31.68-31.68z" p-id="2398" fill="#FF868D"></path></svg>