<?xml version="1.0" standalone="no"?><!DOCTYPE svg PUBLIC "-//W3C//DTD SVG 1.1//EN" "http://www.w3.org/Graphics/SVG/1.1/DTD/svg11.dtd"><svg t="1660722072871" class="icon" viewBox="0 0 1024 1024" version="1.1" xmlns="http://www.w3.org/2000/svg" p-id="2729" xmlns:xlink="http://www.w3.org/1999/xlink" width="200" height="200"><defs><style type="text/css">@font-face { font-family: feedback-iconfont; src: url("//at.alicdn.com/t/font_1031158_u69w8yhxdu.woff2?t=1630033759944") format("woff2"), url("//at.alicdn.com/t/font_1031158_u69w8yhxdu.woff?t=1630033759944") format("woff"), url("//at.alicdn.com/t/font_1031158_u69w8yhxdu.ttf?t=1630033759944") format("truetype"); }
</style></defs><path d="M428.8 750.208a44.8 44.8 0 1 1 0 89.6 44.8 44.8 0 0 1 0-89.6z m256 0a44.8 44.8 0 1 1 0 89.6 44.8 44.8 0 0 1 0-89.6zM192 163.424a132.128 132.128 0 0 1 129.92 108.32l1.056 6.496 40.384 305.856a73.6 73.6 0 0 0 67.744 63.808l5.216 0.16H790.4v44.8H436.32a118.4 118.4 0 0 1-116.384-96.64l-0.96-6.24-40.416-305.888A87.328 87.328 0 0 0 197.44 208.384L192 208.224v-44.8z m227.2 90.4l3.936 0.32 378.656 47.68 3.712 0.8c11.392 3.104 20.736 11.136 26.272 21.888 5.12 9.888 6.688 21.472 4.544 32.544l-43.744 226.176-0.96 3.68c-5.44 18.368-20.992 31.68-39.776 31.68l-301.344-0.032-3.84-0.32c-19.52-2.688-33.76-19.424-36.224-39.52l-33.728-273.696-0.224-3.744c-0.64-22.4 13.44-42.944 36.8-47.136l2.432-0.256 3.456-0.064z m1.984 45.12l0.096 1.76 33.6 272.544v0.544H748.8l43.584-225.248a5.824 5.824 0 0 0-0.384-3.52l0.192 0.672-370.976-46.752z" p-id="2730" fill="#FF868D"></path></svg>