<?xml version="1.0" standalone="no"?><!DOCTYPE svg PUBLIC "-//W3C//DTD SVG 1.1//EN" "http://www.w3.org/Graphics/SVG/1.1/DTD/svg11.dtd"><svg t="1660722016199" class="icon" viewBox="0 0 1024 1024" version="1.1" xmlns="http://www.w3.org/2000/svg" p-id="1507" xmlns:xlink="http://www.w3.org/1999/xlink" width="200" height="200"><defs><style type="text/css">@font-face { font-family: feedback-iconfont; src: url("//at.alicdn.com/t/font_1031158_u69w8yhxdu.woff2?t=1630033759944") format("woff2"), url("//at.alicdn.com/t/font_1031158_u69w8yhxdu.woff?t=1630033759944") format("woff"), url("//at.alicdn.com/t/font_1031158_u69w8yhxdu.ttf?t=1630033759944") format("truetype"); }
</style></defs><path d="M416 888.8a22.4 22.4 0 0 1-3.04-44.576l3.04-0.224h73.568v-150.592a246.56 246.56 0 0 1-218.176-192.064l-7.04 0.768a118.4 118.4 0 0 1-126.592-111.808L137.6 384V288a22.4 22.4 0 0 1 19.36-22.208L160 265.6h105.568L265.6 224a86.4 86.4 0 0 1 80.96-86.24L352 137.6h320A86.4 86.4 0 0 1 758.4 224l-0.032 41.6H864a22.4 22.4 0 0 1 22.208 19.36L886.4 288v96a118.4 118.4 0 0 1-133.76 117.408 246.624 246.624 0 0 1-218.24 192l-0.032 150.592H608a22.4 22.4 0 0 1 3.04 44.608l-3.04 0.192h-192zM672 182.4H352A41.6 41.6 0 0 0 310.4 224v224a201.6 201.6 0 0 0 403.2 0V224A41.6 41.6 0 0 0 672 182.4zM265.568 310.368L182.4 310.4V384a73.6 73.6 0 0 0 68.576 73.44L256 457.6c3.296 0 6.56-0.224 9.792-0.64A213.44 213.44 0 0 1 265.6 448l-0.032-137.632z m492.8 0L758.4 448c0 2.976-0.064 5.92-0.16 8.896a73.6 73.6 0 0 0 83.2-67.84L841.6 384V310.4l-83.232-0.032z" p-id="1508" fill="#FF868D"></path></svg>