<?xml version="1.0" standalone="no"?><!DOCTYPE svg PUBLIC "-//W3C//DTD SVG 1.1//EN" "http://www.w3.org/Graphics/SVG/1.1/DTD/svg11.dtd"><svg t="1660722024532" class="icon" viewBox="0 0 1024 1024" version="1.1" xmlns="http://www.w3.org/2000/svg" p-id="1693" xmlns:xlink="http://www.w3.org/1999/xlink" width="200" height="200"><defs><style type="text/css">@font-face { font-family: feedback-iconfont; src: url("//at.alicdn.com/t/font_1031158_u69w8yhxdu.woff2?t=1630033759944") format("woff2"), url("//at.alicdn.com/t/font_1031158_u69w8yhxdu.woff?t=1630033759944") format("woff"), url("//at.alicdn.com/t/font_1031158_u69w8yhxdu.ttf?t=1630033759944") format("truetype"); }
</style></defs><path d="M832 817.6a22.4 22.4 0 0 1 3.04 44.608L832 862.4H192a22.4 22.4 0 0 1-3.04-44.608L192 817.6h640z m-224-656a22.4 22.4 0 0 1 3.04 44.608L608 206.4h-73.632v68c158.08 11.264 283.424 140.896 287.904 300.768l0.128 8.832v160a22.4 22.4 0 0 1-22.4 22.4H224a22.4 22.4 0 0 1-22.4-22.4v-160c0-163.872 127.04-298.112 288-309.6l-0.032-68H416a22.4 22.4 0 0 1-3.04-44.608L416 161.6h192z m-96 156.8a265.6 265.6 0 0 0-265.6 265.6v137.6h531.2v-137.6a265.6 265.6 0 0 0-257.472-265.472z m0 83.2a182.4 182.4 0 0 1 182.4 182.4 22.4 22.4 0 0 1-44.8 0 137.6 137.6 0 0 0-137.6-137.6 22.4 22.4 0 0 1 0-44.8z" p-id="1694" fill="#FF868D"></path></svg>