<?xml version="1.0" standalone="no"?><!DOCTYPE svg PUBLIC "-//W3C//DTD SVG 1.1//EN" "http://www.w3.org/Graphics/SVG/1.1/DTD/svg11.dtd"><svg t="1660722100360" class="icon" viewBox="0 0 1024 1024" version="1.1" xmlns="http://www.w3.org/2000/svg" p-id="3101" xmlns:xlink="http://www.w3.org/1999/xlink" width="200" height="200"><defs><style type="text/css">@font-face { font-family: feedback-iconfont; src: url("//at.alicdn.com/t/font_1031158_u69w8yhxdu.woff2?t=1630033759944") format("woff2"), url("//at.alicdn.com/t/font_1031158_u69w8yhxdu.woff?t=1630033759944") format("woff"), url("//at.alicdn.com/t/font_1031158_u69w8yhxdu.ttf?t=1630033759944") format("truetype"); }
</style></defs><path d="M512 137.6a182.4 182.4 0 0 1 181.216 161.6l0.32 3.392 4.672-1.056c9.216-1.952 18.656-3.2 28.192-3.68L736 297.6a182.4 182.4 0 1 1-38.912 360.64 105.856 105.856 0 0 0-34.528 72.512l-0.16 6.016V800a86.4 86.4 0 0 1-80.96 86.24L576 886.4h-128a86.4 86.4 0 0 1-86.24-80.96L361.6 800v-61.856a107.52 107.52 0 0 0-35.36-79.808c-10.144 2.24-20.576 3.52-31.232 3.936L288 662.4a182.4 182.4 0 1 1 37.824-360.864l4.608 1.088 0.32-3.424a182.432 182.432 0 0 1 174.24-161.472z m-42.464 359.84l-0.32 3.36a182.496 182.496 0 0 1-97.056 141.088l-1.568-1.92a151.968 151.968 0 0 1 35.648 91.2l0.16 6.976V800a41.6 41.6 0 0 0 37.344 41.376L448 841.6h128a41.6 41.6 0 0 0 41.376-37.344L617.6 800v-63.232c0-36.064 12.64-69.216 33.728-95.2a182.4 182.4 0 0 1-96.544-140.8l-0.384-3.328a181.536 181.536 0 0 1-2.56 0.576l-2.048 0.448a181.76 181.76 0 0 1-28.192 3.68l8.576-0.64a183.392 183.392 0 0 1-4.48 0.384l-4.096 0.256a186.88 186.88 0 0 1-9.6 0.256l-6.848-0.128a183.52 183.52 0 0 1-30.976-3.808l6.976 1.344a181.888 181.888 0 0 1-5.856-1.12l-1.12-0.224-3.328-0.736a181.568 181.568 0 0 1-1.28-0.32zM512 182.4c-76 0-137.6 61.6-137.6 137.12l0.096 5.92 0.448 6.656a22.4 22.4 0 0 1-31.392 21.952A137.6 137.6 0 1 0 288 617.6c76 0 137.6-61.6 137.6-137.12a160 160 0 0 1-22.496-14.144 22.4 22.4 0 0 1 26.784-35.904 137.344 137.344 0 0 0 31.328 17.504l-4.48-1.888c2.496 1.12 5.024 2.144 7.584 3.072l-3.104-1.184c2.528 0.992 5.056 1.92 7.648 2.784l-4.544-1.6c2.528 0.96 5.12 1.792 7.68 2.56l-3.136-0.96c2.24 0.736 4.48 1.408 6.752 2.016l-3.616-1.024c2.56 0.768 5.152 1.472 7.776 2.112l-4.16-1.088c2.656 0.736 5.376 1.376 8.064 1.952l-3.904-0.864c2.624 0.64 5.248 1.152 7.936 1.632l-4.032-0.768c2.688 0.544 5.376 1.024 8.064 1.44l-4.032-0.64a137.6 137.6 0 0 0 7.904 1.152l-3.84-0.512c2.496 0.352 5.024 0.64 7.552 0.896l-3.712-0.384a139.2 139.2 0 0 0 40.768-1.184l1.44-0.288-1.44 0.288c2.656-0.48 5.28-1.024 7.904-1.664l-6.464 1.376c2.976-0.544 5.888-1.216 8.8-1.952l-2.336 0.576c2.592-0.64 5.184-1.312 7.744-2.08l-5.408 1.504c2.816-0.736 5.568-1.536 8.32-2.432l-2.912 0.928c2.368-0.736 4.736-1.536 7.104-2.368l-4.192 1.44a136.96 136.96 0 0 0 38.272-19.712 22.4 22.4 0 1 1 26.496 36.16 182.592 182.592 0 0 1-21.312 13.44 137.6 137.6 0 1 0 82.08-126.624 22.4 22.4 0 0 1-31.36-22.368A137.6 137.6 0 0 0 512 182.4z" p-id="3102" fill="#FF868D"></path></svg>