<?xml version="1.0" standalone="no"?><!DOCTYPE svg PUBLIC "-//W3C//DTD SVG 1.1//EN" "http://www.w3.org/Graphics/SVG/1.1/DTD/svg11.dtd"><svg t="1660721065168" class="icon" viewBox="0 0 1024 1024" version="1.1" xmlns="http://www.w3.org/2000/svg" p-id="1321" xmlns:xlink="http://www.w3.org/1999/xlink" width="200" height="200"><defs><style type="text/css">@font-face { font-family: feedback-iconfont; src: url("//at.alicdn.com/t/font_1031158_u69w8yhxdu.woff2?t=1630033759944") format("woff2"), url("//at.alicdn.com/t/font_1031158_u69w8yhxdu.woff?t=1630033759944") format("woff"), url("//at.alicdn.com/t/font_1031158_u69w8yhxdu.ttf?t=1630033759944") format("truetype"); }
</style></defs><path d="M608 137.6a86.4 86.4 0 0 1 86.24 80.96L694.4 224v41.6H800a86.4 86.4 0 0 1 86.24 80.96l0.16 5.44v448a86.4 86.4 0 0 1-86.4 86.4H224a86.4 86.4 0 0 1-86.24-80.96L137.6 800V224a86.4 86.4 0 0 1 80.96-86.24L224 137.6h384z m192 172.8H182.4V800A41.6 41.6 0 0 0 224 841.6h576a41.6 41.6 0 0 0 41.6-41.6v-105.6H640a118.4 118.4 0 0 1-118.24-112.096L521.6 576a118.4 118.4 0 0 1 118.4-118.4h201.6V352a41.6 41.6 0 0 0-37.344-41.376L800 310.4z m41.6 192H640a73.6 73.6 0 0 0-73.44 68.576L566.4 576a73.6 73.6 0 0 0 73.6 73.6h201.6v-147.2zM640 544a32 32 0 1 1 0 64 32 32 0 0 1 0-64zM608 182.4H224a41.6 41.6 0 0 0-41.376 37.344L182.4 224v41.6h467.2V224a41.6 41.6 0 0 0-37.344-41.376L608 182.4z" p-id="1322" fill="#FF868D"></path></svg>